<?xml version="1.0" encoding="UTF-8"?>
<svg version="1.1" xmlns="http://www.w3.org/2000/svg" width="32" height="32">
<path d="M0 0 C10.56 0 21.12 0 32 0 C32 10.56 32 21.12 32 32 C21.44 32 10.88 32 0 32 C0 21.44 0 10.88 0 0 Z " fill="#F7A22D" transform="translate(0,0)"/>
<path d="M0 0 C0.66 0 1.32 0 2 0 C3.32 2.31 4.64 4.62 6 7 C6.66 5.35 7.32 3.7 8 2 C11.96 3.32 15.92 4.64 20 6 C19.01 7.98 18.02 9.96 17 12 C19.64 12.33 22.28 12.66 25 13 C25 15.97 25 18.94 25 22 C14.44 22 3.88 22 -7 22 C-7 19.03 -7 16.06 -7 13 C-4.36 12.67 -1.72 12.34 1 12 C0.484375 11.29875 -0.03125 10.5975 -0.5625 9.875 C-2.31260067 6.37479865 -2.01271358 4.71328312 -1 1 C-0.67 0.67 -0.34 0.34 0 0 Z " fill="#1F8B4C" transform="translate(7,10)"/>
<path d="M0 0 C4.95 0 9.9 0 15 0 C14.67 0.99 14.34 1.98 14 3 C13.34 3 12.68 3 12 3 C11.34 6.3 10.68 9.6 10 13 C9.67 12.01 9.34 11.02 9 10 C7.31318262 11.10041919 7.31318262 11.10041919 6 13 C6.25616284 17.01321783 7.17606445 19.3521289 9 23 C6.03 23 3.06 23 0 23 C0 15.41 0 7.82 0 0 Z " fill="#FFFFFF" transform="translate(0,0)"/>
<path d="M0 0 C4.62 0 9.24 0 14 0 C14 7.59 14 15.18 14 23 C11.03 23 8.06 23 5 23 C5.515625 22.13375 6.03125 21.2675 6.5625 20.375 C8.23045199 16.45893881 7.89578586 15.07175391 7 11 C6.9031165 8.32601531 6.95384643 5.67690694 7 3 C6.34 3 5.68 3 5 3 C5 3.66 5 4.32 5 5 C3.02 5.99 3.02 5.99 1 7 C0.67 4.69 0.34 2.38 0 0 Z " fill="#FFFFFF" transform="translate(18,0)"/>
<path d="M0 0 C6.12986785 -0.08926992 11.95250582 -0.11401208 18 1 C18.66 0.67 19.32 0.34 20 0 C22.04055005 -0.07065617 24.08334257 -0.08421976 26.125 -0.0625 C27.22070312 -0.05347656 28.31640625 -0.04445313 29.4453125 -0.03515625 C30.28835937 -0.02355469 31.13140625 -0.01195313 32 0 C32 1.65 32 3.3 32 5 C21.44 5 10.88 5 0 5 C0 3.35 0 1.7 0 0 Z " fill="#9C9D9F" transform="translate(0,27)"/>
<path d="M0 0 C1.58294782 -0.05437607 3.16644256 -0.09296271 4.75 -0.125 C5.63171875 -0.14820312 6.5134375 -0.17140625 7.421875 -0.1953125 C10.1429021 0.01082592 11.61530473 0.75776334 14 2 C16.97524961 1.70247504 19.32241195 1.33879403 22 0 C23.70702735 -0.06996014 25.41668003 -0.08440154 27.125 -0.0625 C28.03507812 -0.05347656 28.94515625 -0.04445313 29.8828125 -0.03515625 C30.93082031 -0.01775391 30.93082031 -0.01775391 32 0 C32 1.32 32 2.64 32 4 C31.20335938 4.06058594 30.40671875 4.12117188 29.5859375 4.18359375 C22.956296 4.70122476 22.956296 4.70122476 16.375 5.625 C14 6 14 6 12 5 C9.9625237 4.77141886 7.91959697 4.58975722 5.875 4.4375 C4.23144531 4.31181641 4.23144531 4.31181641 2.5546875 4.18359375 C1.71164062 4.12300781 0.86859375 4.06242187 0 4 C0 2.68 0 1.36 0 0 Z " fill="#0E7246" transform="translate(0,23)"/>
<path d="M0 0 C0.66 0 1.32 0 2 0 C2.66 4.29 3.32 8.58 4 13 C2.35 12.67 0.7 12.34 -1 12 C-1.99 12.495 -1.99 12.495 -3 13 C-3 12.34 -3 11.68 -3 11 C-4.32 10.67 -5.64 10.34 -7 10 C-6.45912682 6.21388773 -4.88277668 4.44599233 -2 2 C-1.34 2 -0.68 2 0 2 C0 1.34 0 0.68 0 0 Z " fill="#C1D73B" transform="translate(23,3)"/>
<path d="M0 0 C0.66 0 1.32 0 2 0 C2.8971875 1.6396875 2.8971875 1.6396875 3.8125 3.3125 C5.29044697 5.91074129 6.69822933 8.04349493 9 10 C8.67 10.66 8.34 11.32 8 12 C6.02 11.34 4.04 10.68 2 10 C2 9.34 2 8.68 2 8 C0.68 7.67 -0.64 7.34 -2 7 C-1.125 1.125 -1.125 1.125 0 0 Z " fill="#509F49" transform="translate(7,10)"/>
<path d="M0 0 C3.96 1.32 7.92 2.64 12 4 C11.67 4.99 11.34 5.98 11 7 C9.56208484 6.85831863 8.1246763 6.71148957 6.6875 6.5625 C5.88699219 6.48128906 5.08648437 6.40007813 4.26171875 6.31640625 C2 6 2 6 -1 5 C-0.67 3.35 -0.34 1.7 0 0 Z " fill="#6DB74A" transform="translate(15,12)"/>
<path d="M0 0 C2.31 0 4.62 0 7 0 C6.01 2.97 5.02 5.94 4 9 C0.06153846 5.67692308 0.06153846 5.67692308 -0.25 2.25 C-0.1675 1.5075 -0.085 0.765 0 0 Z " fill="#EF5B35" transform="translate(10,9)"/>
<path d="M0 0 C0.66 0.66 1.32 1.32 2 2 C-2.62 2 -7.24 2 -12 2 C-12 1.34 -12 0.68 -12 0 C-7.88779344 -1.54207746 -4.22170714 -0.74901256 0 0 Z " fill="#FFFFFF" transform="translate(12,30)"/>
<path d="M0 0 C0 0.66 0 1.32 0 2 C-4.62 2 -9.24 2 -14 2 C-9.82769799 -2.17230201 -5.41860283 -0.81279043 0 0 Z " fill="#FFFFFF" transform="translate(32,30)"/>
<path d="M0 0 C0.66 0 1.32 0 2 0 C2.33 3.3 2.66 6.6 3 10 C2.01 9.67 1.02 9.34 0 9 C-0.12375 8.195625 -0.2475 7.39125 -0.375 6.5625 C-0.684375 5.2940625 -0.684375 5.2940625 -1 4 C-1.66 3.67 -2.32 3.34 -3 3 C-2.01 2.67 -1.02 2.34 0 2 C0 1.34 0 0.68 0 0 Z " fill="#E2E32E" transform="translate(23,3)"/>
<path d="M0 0 C0.66 0 1.32 0 2 0 C3.32 2.64 4.64 5.28 6 8 C5.236875 7.690625 4.47375 7.38125 3.6875 7.0625 C1.81210323 6.32106407 -0.08684652 5.63771783 -2 5 C-1.34 3.35 -0.68 1.7 0 0 Z " fill="#78B548" transform="translate(7,10)"/>
<path d="M0 0 C1.32 0.33 2.64 0.66 4 1 C3.34 2.32 2.68 3.64 2 5 C0.35 5 -1.3 5 -3 5 C-3 4.34 -3 3.68 -3 3 C-2.34 3 -1.68 3 -1 3 C-0.67 2.01 -0.34 1.02 0 0 Z " fill="#FCD41F" transform="translate(15,0)"/>
<path d="M0 0 C2.31 0.66 4.62 1.32 7 2 C6.67 2.99 6.34 3.98 6 5 C3.69 4.34 1.38 3.68 -1 3 C-0.67 2.01 -0.34 1.02 0 0 Z " fill="#419749" transform="translate(18,17)"/>
<path d="M0 0 C1.0725 0.309375 2.145 0.61875 3.25 0.9375 C5.82866222 1.66812096 8.39512102 2.37482904 11 3 C11 3.66 11 4.32 11 5 C10.21625 4.814375 9.4325 4.62875 8.625 4.4375 C6.02910225 3.74037734 6.02910225 3.74037734 4 5 C4 4.34 4 3.68 4 3 C2.68 2.67 1.36 2.34 0 2 C0 1.34 0 0.68 0 0 Z " fill="#A5CE4E" transform="translate(16,11)"/>
</svg>
